<?xml version="1.0" encoding="UTF-8" standalone="no"?>
<svg
   width="148"
   height="150"
   viewBox="0 0 148 150"
   fill="none"
   version="1.1"
   id="svg1"
   sodipodi:docname="circle-star2.svg"
   inkscape:version="1.3 (1:1.3+202307231459+0e150ed6c4)"
   xmlns:inkscape="http://www.inkscape.org/namespaces/inkscape"
   xmlns:sodipodi="http://sodipodi.sourceforge.net/DTD/sodipodi-0.dtd"
   xmlns="http://www.w3.org/2000/svg"
   xmlns:svg="http://www.w3.org/2000/svg">
  <defs
     id="defs1" />
  <sodipodi:namedview
     id="namedview1"
     pagecolor="#ffffff"
     bordercolor="#000000"
     borderopacity="0.25"
     inkscape:showpageshadow="2"
     inkscape:pageopacity="0.0"
     inkscape:pagecheckerboard="0"
     inkscape:deskcolor="#d1d1d1"
     showgrid="false"
     inkscape:zoom="3.5666667"
     inkscape:cx="53.411215"
     inkscape:cy="75"
     inkscape:window-width="1318"
     inkscape:window-height="738"
     inkscape:window-x="48"
     inkscape:window-y="0"
     inkscape:window-maximized="1"
     inkscape:current-layer="svg1" />
  <path
     d="m 77.99463,2.2903663 5.751599,2.61738 c 1.6175,0.73609 3.3954,1.04959 5.1672,0.91112 l 6.2999,-0.49237 c 2.738296,-0.214 5.435391,0.76757 7.395391,2.6916195 l 4.509,4.4266712 c 1.269,1.245 2.832,2.1476 4.54401,2.6235 l 6.089,1.692 c 2.646,0.7354 4.844,2.5802 6.028,5.0586 l 2.724,5.7021 c 0.766,1.6036 1.926,2.9866 3.372,4.0194 l 5.143,3.6723 c 2.235,1.5962 3.67,4.0816 3.935,6.8154 l 0.609,6.2897 c 0.171,1.7689 0.789,3.4654 1.794,4.9305 l 3.577,5.2097 c 1.554,2.2644 2.053,5.0907 1.366,7.7502 l -1.578,6.1187 c -0.444,1.7208 -0.444,3.5262 0,5.247 l 1.578,6.1187 c 0.687,2.6595 0.188,5.4858 -1.366,7.7502 l -3.577,5.209703 c -1.005,1.465093 -1.623,3.161593 -1.794,4.93089 l -0.609,6.289 c -0.265,2.734 -1.7,5.22 -3.935,6.816 l -5.143,3.672 c -1.446,1.033 -2.606,2.416 -3.372,4.019 l -2.724,5.703 c -1.184,2.478 -3.382,4.323 -6.028,5.058 l -6.089,1.692 c -1.71201,0.476 -3.27501,1.379 -4.54401,2.624 l -4.509,4.426 c -1.96,1.924 -4.657095,2.906 -7.395391,2.692 l -6.2999,-0.492 c -1.7718,-0.139 -3.5497,0.175 -5.1672,0.911 l -5.751599,2.617 c -2.4999,1.138 -5.369901,1.138 -7.869801,0 l -5.7516,-2.617 c -1.6175,-0.736 -3.3954,-1.05 -5.1672,-0.911 l -6.299899,0.492 c -2.7383,0.214 -5.4351,-0.768 -7.3952,-2.692 l -4.5095,-4.426 c -1.2682,-1.245 -2.8317,-2.148 -4.544,-2.624 l -6.0884,-1.692 c -2.646301,-0.735 -4.844801,-2.58 -6.028601,-5.058 l -2.7235,-5.703 c -0.766,-1.603 -1.9264,-2.986 -3.3727,-4.019 l -5.1425,-3.672 c -2.2352,-1.596 -3.6701201,-4.082 -3.9348601,-6.816 l -0.60908,-6.289 c -0.1713,-1.769297 -0.78876,-3.465797 -1.79456,-4.93089 L 3.1868685,91.442787 c -1.55446,-2.2644 -2.05282,-5.0907 -1.36657,-7.7502 l 1.57886,-6.1187 c 0.44402,-1.7208 0.44402,-3.5262 0,-5.247 l -1.57886,-6.1187 c -0.68625,-2.6595 -0.18789,-5.4858 1.36657,-7.7502 l 3.5763604,-5.2097 c 1.0058,-1.4651 1.62326,-3.1616 1.79456,-4.9305 l 0.60908,-6.2897 c 0.26474,-2.7338 1.6996601,-5.2192 3.9348601,-6.8154 l 5.1425,-3.6723 c 1.4463,-1.0328 2.6067,-2.4158 3.3727,-4.0194 l 2.7235,-5.7021 c 1.1838,-2.4784 3.3823,-4.3232 6.028601,-5.0586 l 6.0884,-1.692 c 1.7123,-0.4759 3.2758,-1.3785 4.544,-2.6235 l 4.5095,-4.4266712 c 1.9601,-1.9240495 4.6569,-2.9056195 7.3952,-2.6916195 l 6.299899,0.49237 c 1.7718,0.13847 3.5497,-0.17503 5.1672,-0.91112 l 5.7516,-2.61737 c 2.4999,-1.13764 5.369901,-1.13764 7.869801,-1e-5 z"
     stroke="#ffffff"
     stroke-opacity="0.3"
     id="path1"
     style="stroke:#0bb9b3;stroke-opacity:0.301961" />
</svg>
