<svg xmlns="http://www.w3.org/2000/svg" version="1.1" xmlns:xlink="http://www.w3.org/1999/xlink" xmlns:svgjs="http://svgjs.dev/svgjs" width="1440" height="560" preserveAspectRatio="none" viewBox="0 0 1440 560">
    <g mask="url(&quot;#SvgjsMask1090&quot;)" fill="none">
        <rect width="1440" height="560" x="0" y="0" fill="rgba(17, 24, 39, 1)"></rect>
        <path d="M0,506.079C106.674,524.972,228.052,555.211,318.232,495.179C408.358,435.182,410.813,306.495,450.897,205.918C488.724,111.003,571.636,20.505,546.918,-78.635C522.207,-177.748,386.635,-200.67,328.574,-284.711C259.237,-385.075,294.389,-570.215,179.323,-610.717C66.62,-650.388,-28.848,-508.31,-131.109,-446.516C-206.456,-400.986,-285.035,-363.455,-341.557,-295.961C-397.4,-229.277,-436.416,-150.597,-450.763,-64.81C-465.333,22.307,-458.327,112.232,-423.391,193.356C-387.988,275.566,-325.19,340.794,-253.191,393.973C-177.412,449.944,-92.764,489.649,0,506.079" fill="#101725"></path>
        <path d="M1440 1039.498C1529.575 1040.019 1602.848 978.13 1682.958 938.049 1773.666 892.6659999999999 1900.551 881.813 1941.04 788.817 1981.617 695.6179999999999 1880.566 598.974 1874.769 497.49 1868.1390000000001 381.41999999999996 1982.029 244.152 1904.9569999999999 157.11200000000002 1827.562 69.707 1677.882 158.92700000000002 1562.052 144.32999999999998 1470.799 132.82999999999998 1391.138 75.945 1299.29 80.78500000000003 1191.074 86.488 1069.406 95.63900000000001 994.788 174.22199999999998 919.751 253.24599999999998 934.893 377.34299999999996 915.815 484.634 896.004 596.047 820.586 719.564 880.777 815.389 942.289 913.317 1091.508 892.213 1198.853 935.232 1281.823 968.483 1350.617 1038.978 1440 1039.498" fill="#121929"></path>
    </g>
    <defs>
        <mask id="SvgjsMask1090">
            <rect width="1440" height="560" fill="#ffffff"></rect>
        </mask>
    </defs>
</svg>